<svg xmlns="http://www.w3.org/2000/svg" id="Layer_2" viewBox="0 0 402.08 59.53"><defs><style>.cls-1{fill:#fff;}.cls-2{fill:#fcb415;}.cls-3{fill:#000002;}.cls-4{fill:#131718;fill-rule:evenodd;}.cls-5{fill:#131819;}</style></defs><g id="Layer_1-2"><g><circle class="cls-1" cx="293.61" cy="22.29" r="22.13"></circle><path class="cls-2" d="M290.8,45.26l-3.04-11.46s2.78-1.34,2.78-1.23-.07-1.65-.21-1.93-1.05-2.88-1.05-2.88l.98-1.65s.67-.32,.84-.25,.63,.56,.63,.56c0,0,.18,2.04,.21,2.18s-.68,2.67-.68,2.67l-.2,.91,.45,.49,1.27,.67,1.02-.28,1.17-.91v-.81l-.19-1.57-.11-2.47,.56-.84s.35-.18,.51-.18,.83,1.06,.83,1.06c0,0,.04,1.44,0,1.69s-.74,2.22-.83,2.43-.12,1.09-.12,1.09l.66,.67,1.07,.14,2.13-.53-.55,2.04-2.65,10.41h-5.5Z"></path><g><path class="cls-3" d="M.71,1.02c.47-.47,1.07-.71,1.8-.71H11.92c1.62,0,3.16,.31,4.63,.94,1.46,.63,2.73,1.48,3.8,2.55,1.07,1.07,1.92,2.34,2.55,3.8,.63,1.46,.94,3.01,.94,4.63v2.82c0,1.93-.42,3.71-1.26,5.33-.84,1.62-1.96,2.98-3.37,4.08,1.41,1.1,2.54,2.46,3.37,4.08,.84,1.62,1.26,3.4,1.26,5.33v4.39c0,1.67-.31,3.23-.94,4.67-.63,1.44-1.48,2.69-2.55,3.77-1.07,1.07-2.34,1.92-3.8,2.55-1.46,.63-3.01,.94-4.63,.94H2.51c-.73,0-1.33-.24-1.8-.71-.47-.47-.71-1.07-.71-1.8V2.82c0-.73,.24-1.33,.71-1.8ZM18.27,9.57c-.37-.84-.86-1.57-1.49-2.2-.63-.63-1.36-1.12-2.2-1.49-.84-.36-1.73-.55-2.67-.55H5.02V21.96h6.9c1.88,0,3.5-.67,4.86-2,1.36-1.33,2.04-2.97,2.04-4.9v-2.82c0-.94-.18-1.83-.55-2.67Zm0,21.64c-.37-.84-.86-1.57-1.49-2.2s-1.36-1.12-2.2-1.49c-.84-.36-1.73-.55-2.67-.55H5.02v18.19h6.9c1.88,0,3.5-.67,4.86-2,1.36-1.33,2.04-2.97,2.04-4.9v-4.39c0-.94-.18-1.83-.55-2.67Z"></path><path class="cls-3" d="M68.7,50.51c-.73,0-1.33-.24-1.8-.71-.47-.47-.71-1.07-.71-1.8V2.51c0-.57,.18-1.1,.55-1.57,.36-.47,.84-.76,1.41-.86,.57-.1,1.12-.04,1.65,.2,.52,.24,.91,.62,1.18,1.14,1.36,2.93,2.69,5.75,4,8.47,1.1,2.35,2.22,4.77,3.37,7.25,1.15,2.48,2.12,4.54,2.9,6.16,.36-.78,.8-1.71,1.29-2.78,.5-1.07,1.02-2.2,1.57-3.37,.55-1.18,1.11-2.39,1.69-3.65,.58-1.26,1.15-2.46,1.73-3.61,1.31-2.72,2.64-5.54,4-8.47,.26-.52,.65-.9,1.18-1.14,.52-.23,1.07-.3,1.65-.2,.57,.11,1.04,.39,1.41,.86,.36,.47,.55,.99,.55,1.57V48c0,.73-.25,1.33-.75,1.8-.5,.47-1.09,.71-1.76,.71-.73,0-1.33-.24-1.8-.71s-.71-1.07-.71-1.8V13.72c-.94,1.99-1.87,3.96-2.78,5.92-.92,1.96-1.74,3.73-2.47,5.29-.89,1.83-1.73,3.61-2.51,5.33-.52,.94-1.28,1.41-2.27,1.41-1.1,0-1.86-.47-2.27-1.41-.78-1.73-1.62-3.5-2.51-5.33-.73-1.57-1.57-3.33-2.51-5.29-.94-1.96-1.86-3.93-2.74-5.92V48c0,.73-.25,1.33-.74,1.8-.5,.47-1.09,.71-1.77,.71Z"></path><path class="cls-3" d="M107.67,1.02c.47-.47,1.07-.71,1.8-.71h9.41c1.62,0,3.16,.31,4.63,.94,1.46,.63,2.73,1.48,3.8,2.55,1.07,1.07,1.92,2.34,2.55,3.8,.63,1.46,.94,3.01,.94,4.63v2.82c0,1.93-.42,3.71-1.26,5.33-.84,1.62-1.96,2.98-3.37,4.08,1.41,1.1,2.54,2.46,3.37,4.08,.84,1.62,1.26,3.4,1.26,5.33v4.39c0,1.67-.31,3.23-.94,4.67-.63,1.44-1.48,2.69-2.55,3.77-1.07,1.07-2.34,1.92-3.8,2.55-1.46,.63-3.01,.94-4.63,.94h-9.41c-.73,0-1.33-.24-1.8-.71-.47-.47-.71-1.07-.71-1.8V2.82c0-.73,.24-1.33,.71-1.8Zm17.57,8.55c-.37-.84-.86-1.57-1.49-2.2-.63-.63-1.36-1.12-2.2-1.49-.84-.36-1.73-.55-2.67-.55h-6.9V21.96h6.9c1.88,0,3.5-.67,4.86-2,1.36-1.33,2.04-2.97,2.04-4.9v-2.82c0-.94-.18-1.83-.55-2.67Zm0,21.64c-.37-.84-.86-1.57-1.49-2.2s-1.36-1.12-2.2-1.49c-.84-.36-1.73-.55-2.67-.55h-6.9v18.19h6.9c1.88,0,3.5-.67,4.86-2,1.36-1.33,2.04-2.97,2.04-4.9v-4.39c0-.94-.18-1.83-.55-2.67Z"></path><path class="cls-3" d="M166.33,47.37c.21,.68,.14,1.31-.19,1.88-.34,.58-.88,.97-1.61,1.18-.68,.21-1.31,.14-1.88-.2-.58-.34-.97-.85-1.18-1.53-.21-.78-.45-1.65-.71-2.59-.26-.84-.54-1.8-.82-2.9s-.62-2.33-.98-3.69h-15.21c-.42,1.36-.76,2.59-1.02,3.69-.26,1.1-.52,2.07-.78,2.9-.26,.94-.5,1.8-.71,2.59-.21,.68-.6,1.19-1.18,1.53-.58,.34-1.23,.4-1.96,.2-.68-.21-1.19-.6-1.53-1.18-.34-.57-.4-1.2-.2-1.88L148.92,1.88c.16-.57,.46-1.03,.9-1.37,.44-.34,.95-.51,1.53-.51s1.08,.17,1.53,.51c.44,.34,.74,.8,.9,1.37l12.55,45.49Zm-8.78-12.86c-.52-1.93-1.07-3.93-1.65-6-.58-2.06-1.14-4.09-1.69-6.08-.55-1.99-1.07-3.88-1.57-5.69-.5-1.8-.93-3.41-1.29-4.82-.42,1.41-.86,3.02-1.33,4.82-.47,1.8-.98,3.7-1.53,5.69-.55,1.99-1.11,4.01-1.69,6.08-.58,2.07-1.12,4.07-1.65,6h12.39Z"></path><path class="cls-3" d="M177.63,25.1l-10.74-21.49c-.31-.57-.35-1.2-.12-1.88,.24-.68,.67-1.18,1.3-1.49,.57-.26,1.2-.29,1.88-.08,.68,.21,1.17,.63,1.49,1.26l8.71,17.41L188.84,1.41c.31-.63,.8-1.05,1.45-1.26,.65-.21,1.3-.18,1.92,.08,.63,.31,1.06,.81,1.29,1.49,.24,.68,.2,1.31-.12,1.88l-10.74,21.49v22.9c0,.73-.23,1.33-.71,1.8-.47,.47-1.07,.71-1.8,.71s-1.33-.24-1.8-.71c-.47-.47-.71-1.07-.71-1.8V25.1Z"></path><path class="cls-3" d="M44.54,50.54c-1.67,0-3.23-.31-4.67-.94-1.44-.63-2.69-1.48-3.77-2.55-1.07-1.07-1.92-2.33-2.55-3.77-.63-1.44-.94-2.99-.94-4.67V11.95c0-1.62,.31-3.16,.94-4.63,.63-1.46,1.48-2.73,2.55-3.8s2.33-1.92,3.77-2.55c1.44-.63,2.99-.94,4.67-.94s3.16,.31,4.63,.94,2.73,1.48,3.8,2.55c1.07,1.07,1.92,2.34,2.55,3.8,.63,1.46,.94,3.01,.94,4.63v26.66c0,1.67-.31,3.23-.94,4.67-.63,1.44-1.48,2.69-2.55,3.77-1.07,1.07-2.34,1.92-3.8,2.55s-3.01,.94-4.63,.94Zm0-45.49c-1.94,0-3.57,.68-4.9,2.04-1.33,1.36-2,2.98-2,4.86v26.66c0,1.94,.67,3.57,2,4.9s2.97,2,4.9,2,3.5-.67,4.86-2c1.36-1.33,2.04-2.97,2.04-4.9V11.95c0-.94-.18-1.83-.55-2.67-.37-.84-.86-1.57-1.49-2.2-.63-.63-1.36-1.12-2.2-1.49-.84-.36-1.73-.55-2.67-.55Z"></path></g><g><path class="cls-3" d="M223.62,1.06c.48-.48,1.09-.72,1.83-.72h9.54c1.64,0,3.2,.32,4.69,.95,1.48,.64,2.77,1.5,3.85,2.58,1.09,1.09,1.95,2.37,2.58,3.85,.64,1.48,.96,3.05,.96,4.69v2.86c0,1.96-.42,3.76-1.27,5.4-.85,1.64-1.99,3.02-3.42,4.13,1.43,1.11,2.57,2.49,3.42,4.13,.85,1.64,1.27,3.44,1.27,5.4v4.45c0,1.7-.32,3.27-.96,4.73-.64,1.46-1.5,2.73-2.58,3.82-1.09,1.09-2.37,1.95-3.85,2.58-1.49,.64-3.05,.95-4.69,.95h-9.54c-.74,0-1.35-.24-1.83-.72-.48-.48-.72-1.09-.72-1.83V2.89c0-.74,.24-1.35,.72-1.83Zm17.8,8.66c-.37-.85-.87-1.59-1.51-2.23-.64-.63-1.38-1.14-2.22-1.51-.85-.37-1.75-.56-2.7-.56h-6.99V22.29h6.99c1.91,0,3.55-.68,4.93-2.03,1.38-1.35,2.07-3.01,2.07-4.97v-2.86c0-.95-.18-1.85-.56-2.7Zm0,21.94c-.37-.85-.87-1.59-1.51-2.22s-1.38-1.14-2.22-1.51c-.85-.37-1.75-.56-2.7-.56h-6.99v18.44h6.99c1.91,0,3.55-.68,4.93-2.03,1.38-1.35,2.07-3.01,2.07-4.97v-4.45c0-.95-.18-1.85-.56-2.7Z"></path><path class="cls-3" d="M257.64,50.19c-.48-.48-.72-1.09-.72-1.83V2.58c0-.74,.24-1.35,.72-1.83,.48-.48,1.09-.72,1.83-.72,.69,0,1.28,.24,1.79,.72,.5,.48,.75,1.09,.75,1.83V45.81h13.35c.69,0,1.28,.24,1.79,.72,.5,.48,.76,1.09,.76,1.83s-.25,1.35-.76,1.83c-.5,.48-1.1,.72-1.79,.72h-15.9c-.74,0-1.35-.24-1.83-.72Z"></path><path class="cls-3" d="M347.09,47.56c.32,.64,.36,1.29,.12,1.95-.24,.66-.67,1.15-1.31,1.47s-1.29,.36-1.95,.12c-.66-.24-1.13-.68-1.39-1.31l-11.45-23.61-4.45,6.2v16.29c0,.74-.24,1.35-.72,1.83-.48,.48-1.09,.72-1.83,.72-.69,0-1.29-.24-1.79-.72-.5-.48-.76-1.09-.76-1.83V2.58c0-.74,.25-1.35,.76-1.83,.5-.48,1.1-.72,1.79-.72,.74,0,1.35,.24,1.83,.72,.48,.48,.72,1.09,.72,1.83V23.64L342.72,1.06c.42-.58,.98-.93,1.67-1.03,.69-.1,1.32,.05,1.91,.48,.58,.42,.92,.98,1.03,1.67,.11,.69-.05,1.32-.48,1.91l-12.32,17.33,12.56,26.15Z"></path><path class="cls-3" d="M394.03,44.62c1.8-1.32,2.78-3.1,2.94-5.33,.11-1.06-.03-2.09-.4-3.1-.37-1.01-.93-1.88-1.67-2.62l-12.72-13.03c-1.22-1.22-2.12-2.65-2.7-4.29-.58-1.64-.79-3.31-.64-5.01,.11-1.75,.58-3.38,1.43-4.89,.85-1.51,1.96-2.79,3.34-3.85,1.38-1.06,2.91-1.79,4.61-2.19s3.39-.41,5.09-.04c1.69,.37,3.23,1.05,4.61,2.03,1.38,.98,2.52,2.24,3.42,3.78,.37,.58,.46,1.22,.28,1.91-.18,.69-.6,1.22-1.23,1.59-.58,.37-1.22,.45-1.91,.24-.69-.21-1.19-.61-1.51-1.19-1.06-1.8-2.62-2.91-4.69-3.34-2.07-.42-3.95,0-5.64,1.27-1.64,1.22-2.54,2.89-2.7,5.01-.16,2.07,.48,3.87,1.91,5.4l12.72,13.12c1.22,1.27,2.13,2.74,2.74,4.41,.61,1.67,.86,3.41,.76,5.21-.16,1.8-.66,3.48-1.51,5.05-.85,1.56-1.99,2.88-3.42,3.93-1.43,1.06-3.02,1.8-4.77,2.23-1.75,.42-3.5,.45-5.24,.08-1.75-.37-3.35-1.07-4.81-2.11s-2.64-2.32-3.54-3.85c-.32-.64-.38-1.28-.2-1.95,.18-.66,.57-1.18,1.15-1.55,.58-.37,1.22-.46,1.91-.28,.69,.19,1.22,.6,1.59,1.23,.53,.9,1.22,1.66,2.07,2.27,.85,.61,1.8,1.02,2.86,1.23,2.17,.42,4.13-.03,5.88-1.35Z"></path></g><path class="cls-3" d="M372.5,5.44c.74,0,1.35-.24,1.83-.72,.48-.48,.72-1.09,.72-1.83s-.24-1.35-.72-1.83c-.48-.48-1.09-.72-1.83-.72h-15.9c-.74,0-1.35,.24-1.83,.72-.48,.48-.72,1.09-.72,1.83v2.54h18.44Z"></path><g><path class="cls-3" d="M370.9,27.37c.74,0,1.35-.24,1.83-.72,.48-.48,.72-1.09,.72-1.83s-.24-1.35-.72-1.83c-.48-.48-1.09-.72-1.83-.72h-14.3c-1.41,0-2.55,1.14-2.55,2.55h0c0,1.41,1.14,2.55,2.55,2.55l14.29-.02Z"></path><path class="cls-3" d="M374.32,46.53c-.48-.48-1.09-.72-1.83-.72h-18.44v2.54c0,.74,.24,1.35,.72,1.83,.48,.48,1.09,.72,1.83,.72h15.9c.74,0,1.35-.24,1.83-.72,.48-.48,.72-1.09,.72-1.83s-.24-1.35-.72-1.83Z"></path></g><g><path class="cls-4" d="M298.1,50.78h-9.1c-.77,0-1.39-.54-1.39-1.2h0c0-.66,.62-1.2,1.39-1.2h9.1c.77,0,1.39,.54,1.39,1.2h0c0,.66-.62,1.2-1.39,1.2h0Z"></path><path class="cls-4" d="M297.38,55.15h-7.65c-.77,0-1.39-.54-1.39-1.2h0c0-.66,.62-1.2,1.39-1.2h7.65c.77,0,1.39,.54,1.39,1.2h0c0,.66-.62,1.2-1.39,1.2h0Z"></path><path class="cls-4" d="M296.83,59.53h-6.55c-.77,0-1.39-.54-1.39-1.2h0c0-.66,.62-1.2,1.39-1.2h6.55c.77,0,1.39,.54,1.39,1.2h0c0,.66-.62,1.2-1.39,1.2h0Z"></path><g><path class="cls-5" d="M287.94,34.44c-.24,0-.45-.18-.49-.42-.04-.27,.14-.53,.42-.57,.96-.15,1.78-.65,2.39-1.43-.64-.94-1.33-2.36-1.14-3.93,.24-1.94,1.13-2.55,1.87-2.47,.83,.08,1.65,1.11,1.53,2.86-.1,1.37-.46,2.56-1.03,3.52,.56,.67,1.23,1,1.83,.89,.44-.08,.94-.42,1.43-.96-.54-1.11-.78-2.48-.76-3.67,.03-1.17,.41-2.03,1.06-2.38,.42-.22,.9-.2,1.31,.06,.65,.41,1,1.33,.94,2.45-.06,1.19-.49,2.41-1.19,3.42-.05,.07-.09,.13-.14,.2,.26,.38,.57,.67,.9,.83,.72,.35,1.56,.13,2.52-.64,.21-.17,.53-.14,.7,.07,.17,.21,.14,.53-.07,.7-1.6,1.3-2.83,1.13-3.59,.77-.44-.21-.81-.54-1.12-.93-.5,.5-1.11,.94-1.8,1.06-.9,.17-1.84-.22-2.61-1.04-.75,.86-1.73,1.42-2.87,1.61-.03,0-.05,0-.08,0Zm2.93-7.83c-.24,0-.62,.49-.76,1.61-.13,1.08,.27,2.1,.73,2.87,.37-.75,.6-1.66,.67-2.68,.08-1.15-.36-1.77-.63-1.8h-.02Zm4.78,.13c-.05,0-.1,.02-.13,.04-.23,.12-.51,.6-.53,1.52-.02,.98,.15,1.93,.45,2.72,.5-.82,.8-1.75,.85-2.67,.05-.89-.23-1.39-.48-1.55-.07-.04-.12-.06-.17-.06Z"></path><path class="cls-5" d="M290.77,45.86c-.22,0-.42-.15-.48-.37l-3.98-14.98c-.07-.27,.09-.54,.35-.61,.27-.07,.54,.09,.61,.35l3.98,14.98c.07,.27-.09,.54-.35,.61-.04,.01-.09,.02-.13,.02Z"></path><path class="cls-5" d="M296.26,45.82s-.09,0-.13-.02c-.27-.07-.42-.35-.35-.61l4.06-14.94c.07-.27,.34-.42,.61-.35,.27,.07,.42,.35,.35,.61l-4.06,14.94c-.06,.22-.26,.37-.48,.37Z"></path></g></g></g></g></svg>