<svg width="20" height="21" viewBox="0 0 20 21" fill="none" xmlns="http://www.w3.org/2000/svg">
<g clip-path="url(#clip0_134_560)">
<path d="M15.9453 3.99238V16.1647C15.9453 16.189 15.9449 16.2133 15.9437 16.2376C15.9056 17.0712 15.2174 17.7359 14.3737 17.7359H5.53864C4.6706 17.7359 3.96704 17.0323 3.96704 16.1647V2.0716C3.96704 1.32551 4.48673 0.700898 5.18384 0.540078C5.29806 0.513789 5.41673 0.5 5.53864 0.5H12.5566C12.7952 0.5 13.0281 0.554297 13.2391 0.656367C13.6637 0.860703 13.7833 1.11895 14.5462 1.89906C15.424 2.85215 15.6336 2.94984 15.8124 3.36254C15.8995 3.55938 15.9453 3.77324 15.9453 3.99238Z" fill="#FFC477"/>
<path d="M15.9453 3.99238V16.1647C15.9453 16.189 15.9449 16.2133 15.9436 16.2376C15.8294 16.2639 15.7107 16.2777 15.5888 16.2777H6.75373C5.88568 16.2777 5.18213 15.5741 5.18213 14.7065V0.613398C5.18213 0.588672 5.18252 0.564375 5.18373 0.540078C5.29799 0.513789 5.41666 0.5 5.53857 0.5H12.5565C12.7951 0.5 13.028 0.554297 13.239 0.656367C13.4124 0.739805 13.5708 0.855664 13.7049 0.999063L14.5462 1.8991L15.5094 2.90688C15.6378 3.04094 15.7398 3.19527 15.8123 3.36258C15.8995 3.55937 15.9453 3.77324 15.9453 3.99238Z" fill="#FFDAAA"/>
<path d="M19.9772 9.44311V18.279C19.9772 18.7703 19.8176 19.2248 19.5471 19.5926C19.1432 20.1426 18.4915 20.4999 17.7563 20.4999H11.9851C10.7585 20.4999 9.76416 19.5055 9.76416 18.279V9.44311C9.76416 8.52646 10.3199 7.73943 11.1126 7.40041C11.3803 7.28576 11.6752 7.22217 11.9851 7.22217H17.7563C18.9832 7.22221 19.9772 8.21662 19.9772 9.44311Z" fill="#4CBA68"/>
<path d="M19.9773 9.44311V18.279C19.9773 18.7703 19.8177 19.2248 19.5471 19.5926C19.2794 19.7072 18.9845 19.7708 18.6746 19.7708H12.9034C11.6769 19.7708 10.6825 18.7764 10.6825 17.5499V8.714C10.6825 8.22268 10.8421 7.76818 11.1127 7.40041C11.3804 7.28576 11.6753 7.22217 11.9852 7.22217H17.7564C18.9833 7.22221 19.9773 8.21662 19.9773 9.44311Z" fill="#7CCC92"/>
<path d="M15.7217 15.2526V16.2903C15.7217 16.4738 15.5731 16.6224 15.39 16.6224H14.3518C14.1683 16.6224 14.0197 16.4738 14.0197 16.2903V15.2526C14.0197 15.0691 14.1683 14.9204 14.3518 14.9204H15.39C15.5731 14.9204 15.7217 15.0691 15.7217 15.2526Z" fill="#2C733F"/>
<path d="M18.451 9.23493V10.3468C18.451 10.7422 18.1306 11.0629 17.7348 11.0629H12.0065C11.6112 11.0629 11.2904 10.7421 11.2904 10.3468V9.23493C11.2904 8.83958 11.6112 8.5188 12.0065 8.5188H17.7348C18.1306 8.5188 18.451 8.83962 18.451 9.23493Z" fill="#1E81CE"/>
<path d="M18.451 9.23493V10.3468C18.451 10.7422 18.1306 11.0629 17.7349 11.0629H13.2217C12.8264 11.0629 12.5056 10.7421 12.5056 10.3468V9.23493C12.5056 8.83958 12.8264 8.5188 13.2217 8.5188H17.7349C18.1306 8.5188 18.451 8.83962 18.451 9.23493Z" fill="#3D9AE2"/>
<path d="M12.9929 15.2526V16.2903C12.9929 16.4738 12.8442 16.6224 12.6607 16.6224H11.6226C11.4395 16.6224 11.2904 16.4738 11.2904 16.2903V15.2526C11.2904 15.0691 11.4395 14.9204 11.6226 14.9204H12.6607C12.8442 14.9204 12.9929 15.0691 12.9929 15.2526Z" fill="#2C733F"/>
<path d="M15.7217 12.5387V13.5764C15.7217 13.7599 15.5731 13.9086 15.39 13.9086H14.3518C14.1683 13.9086 14.0197 13.7599 14.0197 13.5764V12.5387C14.0197 12.3552 14.1683 12.2065 14.3518 12.2065H15.39C15.5731 12.2065 15.7217 12.3552 15.7217 12.5387Z" fill="#2C733F"/>
<path d="M18.4838 12.5387V13.5764C18.4838 13.7599 18.3351 13.9086 18.1516 13.9086H17.1139C16.9304 13.9086 16.7817 13.7599 16.7817 13.5764V12.5387C16.7817 12.3552 16.9304 12.2065 17.1139 12.2065H18.1516C18.3351 12.2065 18.4838 12.3552 18.4838 12.5387Z" fill="#EE8700"/>
<path d="M12.9929 12.5387V13.5764C12.9929 13.7599 12.8442 13.9086 12.6607 13.9086H11.6226C11.4395 13.9086 11.2904 13.7599 11.2904 13.5764V12.5387C11.2904 12.3552 11.4395 12.2065 11.6226 12.2065H12.6607C12.8442 12.2065 12.9929 12.3552 12.9929 12.5387Z" fill="#2C733F"/>
<path d="M15.7217 17.8332V18.8714C15.7217 19.0549 15.5731 19.2035 15.39 19.2035H14.3518C14.1683 19.2035 14.0197 19.0549 14.0197 18.8714V17.8332C14.0197 17.6501 14.1683 17.5015 14.3518 17.5015H15.39C15.5731 17.5015 15.7217 17.6501 15.7217 17.8332Z" fill="#2C733F"/>
<path d="M12.9929 17.8332V18.8714C12.9929 19.0549 12.8442 19.2035 12.6607 19.2035H11.6226C11.4395 19.2035 11.2904 19.0549 11.2904 18.8714V17.8332C11.2904 17.6501 11.4395 17.5015 11.6226 17.5015H12.6607C12.8442 17.5015 12.9929 17.6501 12.9929 17.8332Z" fill="#2C733F"/>
<path d="M18.4837 15.4138V18.6368C18.4837 18.9499 18.2302 19.2035 17.9175 19.2035H17.348C17.0353 19.2035 16.7817 18.9499 16.7817 18.6368V15.4138C16.7817 15.1412 17.0029 14.9204 17.2751 14.9204H17.9904C18.263 14.9204 18.4837 15.1412 18.4837 15.4138Z" fill="#EE8700"/>
<path d="M15.7217 15.2526V15.5612C15.7217 15.7447 15.5731 15.8933 15.39 15.8933H14.3518C14.1683 15.8933 14.0197 15.7447 14.0197 15.5612V15.2526C14.0197 15.0691 14.1683 14.9204 14.3518 14.9204H15.39C15.5731 14.9204 15.7217 15.0691 15.7217 15.2526Z" fill="#317F46"/>
<path d="M12.9929 15.2526V15.5612C12.9929 15.7447 12.8442 15.8933 12.6607 15.8933H11.6226C11.4395 15.8933 11.2904 15.7447 11.2904 15.5612V15.2526C11.2904 15.0691 11.4395 14.9204 11.6226 14.9204H12.6607C12.8442 14.9204 12.9929 15.0691 12.9929 15.2526Z" fill="#317F46"/>
<path d="M15.7217 12.5387V12.8473C15.7217 13.0308 15.5731 13.1795 15.39 13.1795H14.3518C14.1683 13.1795 14.0197 13.0308 14.0197 12.8473V12.5387C14.0197 12.3552 14.1683 12.2065 14.3518 12.2065H15.39C15.5731 12.2065 15.7217 12.3552 15.7217 12.5387Z" fill="#317F46"/>
<path d="M18.4838 12.5387V12.8473C18.4838 13.0308 18.3351 13.1795 18.1516 13.1795H17.1139C16.9304 13.1795 16.7817 13.0308 16.7817 12.8473V12.5387C16.7817 12.3552 16.9304 12.2065 17.1139 12.2065H18.1516C18.3351 12.2065 18.4838 12.3552 18.4838 12.5387Z" fill="#FF9811"/>
<path d="M12.9929 12.5387V12.8473C12.9929 13.0308 12.8442 13.1795 12.6607 13.1795H11.6226C11.4395 13.1795 11.2904 13.0308 11.2904 12.8473V12.5387C11.2904 12.3552 11.4395 12.2065 11.6226 12.2065H12.6607C12.8442 12.2065 12.9929 12.3552 12.9929 12.5387Z" fill="#317F46"/>
<path d="M15.7217 17.8332V18.1423C15.7217 18.3258 15.5731 18.4744 15.39 18.4744H14.3518C14.1683 18.4744 14.0197 18.3258 14.0197 18.1423V17.8332C14.0197 17.6501 14.1683 17.5015 14.3518 17.5015H15.39C15.5731 17.5015 15.7217 17.6501 15.7217 17.8332Z" fill="#317F46"/>
<path d="M12.9929 17.8332V18.1423C12.9929 18.3258 12.8442 18.4744 12.6607 18.4744H11.6226C11.4395 18.4744 11.2904 18.3258 11.2904 18.1423V17.8332C11.2904 17.6501 11.4395 17.5015 11.6226 17.5015H12.6607C12.8442 17.5015 12.9929 17.6501 12.9929 17.8332Z" fill="#317F46"/>
<path d="M18.4837 15.4138V17.9077C18.4837 18.2208 18.2302 18.4744 17.9175 18.4744H17.348C17.0353 18.4744 16.7817 18.2208 16.7817 17.9077V15.4138C16.7817 15.1412 17.0029 14.9204 17.2751 14.9204H17.9904C18.263 14.9204 18.4837 15.1412 18.4837 15.4138Z" fill="#FF9811"/>
<path d="M15.8125 3.36238H13.8432C13.5095 3.36238 13.239 3.09188 13.239 2.7582V0.65625C13.4125 0.739648 13.5708 0.855469 13.7048 0.998711L14.5464 1.89883L15.5095 2.90676C15.6378 3.04074 15.7398 3.19512 15.8125 3.36238Z" fill="#FFB655"/>
<path d="M12.8735 4.93521H13.6366C13.8044 4.93521 13.9404 4.79924 13.9404 4.63143C13.9404 4.46361 13.8044 4.32764 13.6366 4.32764H12.8735C12.7057 4.32764 12.5697 4.46361 12.5697 4.63143C12.5697 4.79924 12.7057 4.93521 12.8735 4.93521Z" fill="#4E901E"/>
<path d="M6.27107 4.93521H11.6583C11.8261 4.93521 11.9621 4.79924 11.9621 4.63143C11.9621 4.46361 11.8261 4.32764 11.6583 4.32764H6.27107C6.1033 4.32764 5.96729 4.46361 5.96729 4.63143C5.96729 4.79924 6.1033 4.93521 6.27107 4.93521Z" fill="#4E901E"/>
<path d="M7.2367 6.44303C7.40447 6.44303 7.54049 6.30705 7.54049 6.13924C7.54049 5.97143 7.40447 5.83545 7.2367 5.83545H6.27107C6.1033 5.83545 5.96729 5.97143 5.96729 6.13924C5.96729 6.30705 6.1033 6.44303 6.27107 6.44303H7.2367Z" fill="#4E901E"/>
<path d="M13.6365 5.83545H8.45186C8.28409 5.83545 8.14807 5.97143 8.14807 6.13924C8.14807 6.30705 8.28409 6.44303 8.45186 6.44303H13.6365C13.8043 6.44303 13.9403 6.30705 13.9403 6.13924C13.9403 5.97143 13.8043 5.83545 13.6365 5.83545Z" fill="#4E901E"/>
<path d="M8.72757 19.545C8.72757 19.7568 8.64089 19.9488 8.50156 20.0886C8.36183 20.2279 8.1698 20.3146 7.95796 20.3146H3.24312C2.81984 20.3146 2.47351 19.9683 2.47351 19.545C2.47351 19.3332 2.56019 19.1412 2.69953 19.0014C2.83925 18.8621 3.03128 18.7754 3.24312 18.7754H7.95796C8.38128 18.7754 8.72757 19.1217 8.72757 19.545Z" fill="#AA6100"/>
<path d="M8.72757 18.0057C8.72757 18.2175 8.64089 18.4095 8.50156 18.5493C8.36183 18.6886 8.1698 18.7753 7.95796 18.7753H3.24312C2.81984 18.7753 2.47351 18.429 2.47351 18.0057C2.47351 17.7939 2.56019 17.6019 2.69953 17.4621C2.83925 17.3228 3.03128 17.2361 3.24312 17.2361H7.95796C8.38128 17.2361 8.72757 17.5824 8.72757 18.0057Z" fill="#CC7400"/>
<path d="M8.72757 16.4664C8.72757 16.6782 8.64089 16.8702 8.50156 17.01C8.36183 17.1493 8.1698 17.236 7.95796 17.236H3.24312C2.81984 17.236 2.47351 16.8897 2.47351 16.4664C2.47351 16.2546 2.56019 16.0626 2.69953 15.9228C2.83925 15.7835 3.03128 15.6968 3.24312 15.6968H7.95796C8.38128 15.6968 8.72757 16.0431 8.72757 16.4664Z" fill="#EE8700"/>
<path d="M8.72757 14.9273C8.72757 15.1392 8.64089 15.3312 8.50156 15.4709C8.36183 15.6103 8.1698 15.6969 7.95796 15.6969H3.24312C2.81984 15.6969 2.47351 15.3506 2.47351 14.9273C2.47351 14.7767 2.51765 14.6357 2.59339 14.5166C2.62378 14.4684 2.65941 14.4238 2.69953 14.3837C2.83925 14.2444 3.03128 14.1577 3.24312 14.1577H7.95796C8.38128 14.1577 8.72757 14.504 8.72757 14.9273Z" fill="#FF9811"/>
<path d="M7.95789 14.1576H3.24324C2.81996 14.1576 2.47363 13.8113 2.47363 13.388C2.47363 12.9647 2.81996 12.6184 3.24324 12.6184H7.95793C8.38121 12.6184 8.72754 12.9647 8.72754 13.388C8.7275 13.8113 8.38121 14.1576 7.95789 14.1576Z" fill="#FFA733"/>
<path d="M3.41033 15.3918V20.402H2.64365C1.96666 20.4311 1.34053 20.1883 0.871112 19.7711C-0.832482 18.2592 0.204471 15.4883 2.42912 15.3918H3.41033Z" fill="#CC7400"/>
<path d="M6.02052 17.9876C5.97541 19.2832 4.93908 20.3455 3.62228 20.4019C2.23892 20.461 1.06951 19.3875 1.01037 18.0041C1.01013 17.9985 1.00986 17.9932 1.00986 17.9876C0.959861 16.6111 2.03037 15.4509 3.4081 15.392C4.79146 15.3328 5.96088 16.4064 6.02002 17.79C6.02283 17.8565 6.02306 17.9223 6.02052 17.9876Z" fill="#FFC477"/>
<path d="M3.92996 19.7268C3.89937 19.7337 3.86898 19.7398 3.83844 19.7452C2.85949 19.9175 1.90762 19.2918 1.68523 18.3118C1.45625 17.3013 2.08965 16.2966 3.10019 16.0673C3.3516 16.0105 3.60277 16.0067 3.84172 16.049C4.56285 16.177 5.17258 16.7232 5.34469 17.4823C5.5739 18.4929 4.94051 19.4978 3.92996 19.7268Z" fill="#CC7400"/>
<path d="M3.92999 19.7266C3.89941 19.7335 3.86902 19.7396 3.83847 19.745C3.11761 19.617 2.50765 19.0705 2.3355 18.3117C2.10652 17.3011 2.73992 16.2964 3.75046 16.0672C3.78081 16.0603 3.81144 16.0542 3.84175 16.0488C4.56288 16.1768 5.17261 16.723 5.34472 17.4821C5.57394 18.4927 4.94054 19.4977 3.92999 19.7266Z" fill="#EE8700"/>
<path d="M6.02043 17.9875C5.97531 19.2832 4.93898 20.3455 3.62219 20.4018C2.23883 20.461 1.06941 19.3875 1.01027 18.0041C1.01004 17.9985 1.00977 17.9931 1.00977 17.9875H1.64059C1.64594 18.0949 1.6607 18.2033 1.68523 18.3117C1.91449 19.3222 2.91941 19.9559 3.92996 19.7266C4.7707 19.5361 5.35027 18.8089 5.3893 17.9875H6.02043Z" fill="#FFA733"/>
<path d="M1.42292 16.5154C1.29972 16.7016 1.20073 16.9052 1.13046 17.1213H0.1521C0.221787 16.9019 0.327295 16.6913 0.444131 16.5154H1.42292Z" fill="#AA6100"/>
<path d="M1.02744 18.2117H0.048655C0.0239284 18.0119 0.0218581 17.8121 0.0458034 17.6057H1.02498C1.00151 17.8025 1.00201 18.007 1.02744 18.2117Z" fill="#AA6100"/>
<path d="M1.45729 19.3293H0.478115C0.345537 19.1394 0.241318 18.9329 0.168701 18.7234H1.14749C1.223 18.9411 1.32804 19.1443 1.45729 19.3293Z" fill="#AA6100"/>
<path d="M7.58787 11.4375C7.52634 11.4375 7.48533 11.417 7.44431 11.376L6.21384 10.1455C6.15232 10.084 6.13181 10.002 6.17283 9.91992C6.19334 9.83789 6.27537 9.79688 6.3574 9.79688H6.97263C7.1367 9.79688 7.30076 9.73535 7.4033 9.6123C7.52634 9.50977 7.58787 9.3457 7.58787 9.18164C7.58787 9.01758 7.52634 8.85352 7.4033 8.75098C7.30076 8.62793 7.1367 8.56641 6.97263 8.56641H6.3574C6.23435 8.56641 6.15232 8.48438 6.15232 8.36133C6.15232 8.23828 6.23435 8.15625 6.3574 8.15625H8.61326C8.7363 8.15625 8.81834 8.23828 8.81834 8.36133C8.81834 8.48438 8.7363 8.56641 8.61326 8.56641H7.79295C7.91599 8.75098 7.99802 8.95605 7.99802 9.18164C7.99802 9.44824 7.89548 9.71484 7.69041 9.89941C7.50584 10.1045 7.23923 10.207 6.97263 10.207H6.84959L7.73142 11.0889C7.81345 11.1709 7.81345 11.2939 7.73142 11.376C7.69041 11.417 7.64939 11.4375 7.58787 11.4375Z" fill="#4E901E"/>
<path d="M8.61328 9.38672H6.35742C6.23437 9.38672 6.15234 9.30469 6.15234 9.18164C6.15234 9.05859 6.23437 8.97656 6.35742 8.97656H8.61328C8.73633 8.97656 8.81836 9.05859 8.81836 9.18164C8.81836 9.30469 8.73633 9.38672 8.61328 9.38672Z" fill="#4E901E"/>
<g clip-path="url(#clip1_134_560)">
<path d="M3.74181 19.2109C3.69152 19.2109 3.65799 19.1943 3.62446 19.1611L2.6186 18.165C2.56831 18.1152 2.55154 18.0488 2.58507 17.9824C2.60183 17.916 2.66889 17.8828 2.73595 17.8828H3.23888C3.37299 17.8828 3.50711 17.833 3.59093 17.7334C3.69152 17.6504 3.74181 17.5176 3.74181 17.3848C3.74181 17.252 3.69152 17.1191 3.59093 17.0361C3.50711 16.9365 3.37299 16.8867 3.23888 16.8867H2.73595C2.63536 16.8867 2.56831 16.8203 2.56831 16.7207C2.56831 16.6211 2.63536 16.5547 2.73595 16.5547H4.58003C4.68061 16.5547 4.74767 16.6211 4.74767 16.7207C4.74767 16.8203 4.68061 16.8867 4.58003 16.8867H3.90945C4.01004 17.0361 4.0771 17.2021 4.0771 17.3848C4.0771 17.6006 3.99327 17.8164 3.82563 17.9658C3.67475 18.1318 3.45682 18.2148 3.23888 18.2148H3.13829L3.85916 18.9287C3.92622 18.9951 3.92622 19.0947 3.85916 19.1611C3.82563 19.1943 3.7921 19.2109 3.74181 19.2109Z" fill="#FFC477"/>
<path d="M4.58008 17.5508H2.736C2.63542 17.5508 2.56836 17.4844 2.56836 17.3848C2.56836 17.2852 2.63542 17.2188 2.736 17.2188H4.58008C4.68066 17.2188 4.74772 17.2852 4.74772 17.3848C4.74772 17.4844 4.68066 17.5508 4.58008 17.5508Z" fill="#FFC477"/>
</g>
</g>
<defs>
<clipPath id="clip0_134_560">
<rect width="20" height="20" fill="white" transform="translate(0 0.5)"/>
</clipPath>
<clipPath id="clip1_134_560">
<rect width="4.02344" height="3.98438" fill="white" transform="translate(1.5625 15.8906)"/>
</clipPath>
</defs>
</svg>
