<svg width="66" height="71" viewBox="0 0 66 71" fill="none" xmlns="http://www.w3.org/2000/svg">
<path d="M62.7876 20.0797L59.6199 21.437L59.9405 20.6357C60.3679 19.5673 59.8488 18.3557 58.7804 17.9283C57.712 17.5008 56.5004 18.02 56.073 19.0884L54.205 23.7572L50.0466 25.539L52.5557 19.2676C52.9832 18.1992 52.464 16.9876 51.3956 16.5602C50.3272 16.1327 49.1156 16.6519 48.6882 17.7203L44.6317 27.8592L41.9422 29.0116L43.553 24.1585C43.8368 23.3086 43.542 22.3727 42.8247 21.8349C42.1065 21.2993 41.1216 21.2787 40.3896 21.7919L36.1898 24.7056L36.5361 21.8007L45.1181 15.0492C46.0217 14.3387 46.1774 13.0285 45.4671 12.1242C44.7577 11.2178 43.4455 11.063 42.5423 11.7758L37.2342 15.9511L37.7704 11.4593L41.7214 8.35174C42.6256 7.64146 42.7811 6.3308 42.0705 5.42723C41.3597 4.52316 40.0599 4.36544 39.146 5.07807L38.4682 5.61045L38.8602 2.33002C38.9968 1.18739 38.181 0.151256 37.0384 0.014702C35.8979 -0.120999 34.8591 0.694127 34.7226 1.83675L34.3313 5.11747L33.7977 4.43963C33.0848 3.5347 31.7741 3.37926 30.8732 4.09048C29.9691 4.80126 29.8115 6.11227 30.5242 7.01549L33.6333 10.9658L33.0972 15.4581L28.9197 10.1504C28.2091 9.24681 26.9024 9.09379 25.9947 9.80144C25.0911 10.512 24.9334 11.823 25.6457 12.7265L32.3991 21.3077L32.0523 24.2141L28.6553 20.3907C28.0608 19.7207 27.1038 19.5064 26.2791 19.8597C25.4544 20.2131 24.9494 21.0538 25.024 21.9467L25.4484 27.0443L23.1062 25.2913L21.5492 14.4818C21.3846 13.3443 20.3284 12.5528 19.1909 12.7174C18.061 12.8846 17.2645 13.9388 17.426 15.0759L18.3892 21.7615L14.7668 19.051L14.0492 14.0748C13.8851 12.9371 12.8289 12.1456 11.6909 12.3104C10.5635 12.4724 9.76218 13.5305 9.92628 14.6682L10.0491 15.5209L7.40547 13.5423C6.48177 12.8534 5.17579 13.0436 4.48917 13.9616C3.80011 14.8836 3.98742 16.1884 4.90913 16.8782L7.55438 18.8578L6.6995 18.9809C5.57295 19.145 4.77184 20.2035 4.93509 21.3392C5.10025 22.4795 6.15536 23.2685 7.29359 23.1041L12.2695 22.386L15.8914 25.0968L9.20627 26.0598C8.07573 26.2214 7.27727 27.2806 7.44136 28.4183C7.60596 29.5558 8.66214 30.3473 9.79966 30.1827L20.6075 28.6258L22.9502 30.3786L17.9432 31.4098C17.0658 31.5934 16.4022 32.3133 16.2947 33.2027C16.1893 34.0929 16.6636 34.952 17.4747 35.3327L22.0996 37.5139L19.4121 38.6655L9.27311 34.6091C8.20472 34.1816 6.9931 34.7008 6.56566 35.7692C6.13822 36.8375 6.65738 38.0492 7.72576 38.4766L13.9972 40.9857L9.83878 42.7675L5.16994 40.8996C4.10155 40.4721 2.88993 40.9913 2.46249 42.0597C2.03505 43.1281 2.55421 44.3397 3.62259 44.7671L4.42388 45.0877L1.2632 46.442C0.205649 46.8952 -0.284201 48.1195 0.168944 49.1771C0.62209 50.2346 1.84646 50.7245 2.90401 50.2714L6.06469 48.917L5.74383 49.719C5.31667 50.7867 5.83604 51.9988 6.90393 52.4265C7.9721 52.8534 9.18422 52.3341 9.61138 51.2664L11.4793 46.5975L15.6377 44.8157L13.1286 51.0871C12.7012 52.1555 13.2203 53.3672 14.2887 53.7946C15.3571 54.222 16.5687 53.7029 16.9962 52.6345L21.0526 42.4955L23.7401 41.344L22.1299 46.1969C21.8453 47.0465 22.1404 47.9829 22.8576 48.5207C23.5763 49.0561 24.5662 49.0786 25.2928 48.5637L29.4931 45.6497L29.1463 48.5549L20.564 55.3059C19.6604 56.0164 19.5048 57.3266 20.2155 58.2307C20.9273 59.1384 22.2447 59.2999 23.14 58.5798L28.4489 54.4035L27.9127 58.8954L23.9608 62.0034C23.0572 62.7139 22.9007 64.0221 23.6118 64.9284C24.3224 65.8319 25.6432 65.9919 26.5368 65.2773L27.2152 64.7435L26.8239 68.0242C26.6876 69.1674 27.5031 70.203 28.6457 70.3395C29.7778 70.4747 30.8223 69.669 30.9616 68.5175L31.3525 65.2387L31.8844 65.9155C32.6017 66.8292 33.9182 66.9679 34.8094 66.2644C35.7132 65.5543 35.8687 64.2437 35.1586 63.3399L32.0501 59.3882L32.5862 54.8958L36.7629 60.2045C37.4784 61.1166 38.7931 61.2597 39.6875 60.5537C40.5917 59.8434 40.7472 58.5327 40.0366 57.6291L33.2841 49.0458L33.6304 46.1408L37.0288 49.9635C37.6236 50.6341 38.5803 50.8479 39.405 50.4945C40.2297 50.1411 40.7349 49.3009 40.6597 48.4078L40.2347 43.3115L42.5783 45.0651L44.1337 55.8736C44.2958 57.0122 45.354 57.8028 46.4915 57.6382C47.619 57.4779 48.4213 56.4289 48.2566 55.2802L47.2949 48.5939L50.9172 51.3045L51.6331 56.2808C51.796 57.4197 52.8534 58.21 53.9916 58.0457C55.119 57.8849 55.9209 56.8366 55.7561 55.6874L55.6333 54.8335L58.2791 56.8129C59.2015 57.503 60.5083 57.3119 61.1952 56.3932C61.8844 55.4717 61.6969 54.1663 60.7754 53.4771L58.1302 51.4975L58.9828 51.3747C60.1359 51.2146 60.9121 50.1544 60.7472 49.0164C60.5832 47.8786 59.527 47.0871 58.389 47.252L53.4136 47.9686L49.7914 45.2586L56.4766 44.2956C57.6218 44.1436 58.4079 43.0762 58.241 41.9373C58.0769 40.7996 57.0207 40.0081 55.8827 40.1729L45.0748 41.7298L42.7326 39.9768L47.7397 38.9455C48.6093 38.77 49.2801 38.0423 49.3881 37.1527C49.4936 36.2624 49.0192 35.4034 48.2076 35.0229L43.5828 32.8417L46.2723 31.6893L56.4112 35.7457C57.4796 36.1731 58.6912 35.654 59.1187 34.5856C59.5461 33.5172 59.027 32.3056 57.9586 31.8781L51.6872 29.369L55.8456 27.5872L60.5144 29.4552C61.5828 29.8826 62.7944 29.3634 63.2218 28.2951C63.6493 27.2267 63.1301 26.0151 62.0617 25.5876L61.2604 25.267L64.4286 23.9095C65.4862 23.4564 65.9758 22.2315 65.5229 21.1744C65.0695 20.1164 63.8451 19.6265 62.7876 20.0797Z" fill="#CCEDFF"/>
</svg>
