<svg width="17" height="18" viewBox="0 0 17 18" fill="none" xmlns="http://www.w3.org/2000/svg">
<path d="M15.8898 5.08164L15.0882 5.42514L15.1693 5.22235C15.2775 4.95197 15.1461 4.64534 14.8757 4.53717C14.6054 4.429 14.2987 4.56038 14.1906 4.83076L13.7178 6.01232L12.6655 6.46325L13.3004 4.87612C13.4086 4.60574 13.2772 4.29911 13.0068 4.19094C12.7365 4.08277 12.4298 4.21415 12.3217 4.48453L11.2951 7.05043L10.6145 7.34207L11.0221 6.11388C11.0939 5.8988 11.0193 5.66194 10.8378 5.52585C10.656 5.3903 10.4068 5.38509 10.2215 5.51495L9.15866 6.25234L9.2463 5.51717L11.4182 3.80857C11.6469 3.62874 11.6862 3.29718 11.5065 3.06833C11.327 2.83894 10.9949 2.79976 10.7663 2.98015L9.42297 4.03681L9.55868 2.90004L10.5586 2.11361C10.7874 1.93386 10.8267 1.60217 10.6469 1.3735C10.467 1.1447 10.1381 1.10479 9.9068 1.28514L9.73527 1.41987L9.83448 0.589678C9.86903 0.300511 9.66258 0.0382924 9.37342 0.00373402C9.08479 -0.0306081 8.82191 0.175678 8.78735 0.464846L8.68833 1.29511L8.55329 1.12356C8.37287 0.894551 8.04118 0.855213 7.81317 1.0352C7.58438 1.21508 7.54448 1.54686 7.72487 1.77544L8.51167 2.77516L8.37602 3.91205L7.3188 2.5688C7.13897 2.34013 6.80829 2.30141 6.57856 2.48049C6.34988 2.66032 6.30999 2.9921 6.49025 3.22073L8.19935 5.39241L8.11157 6.12794L7.2519 5.16035C7.10143 4.99079 6.85924 4.93655 6.65053 5.02598C6.44182 5.1154 6.31404 5.32817 6.33289 5.55413L6.44031 6.84421L5.84756 6.40057L5.45352 3.66496C5.41186 3.37708 5.14457 3.17678 4.8567 3.21844C4.57075 3.26076 4.36918 3.52754 4.41005 3.81531L4.65381 5.50726L3.73709 4.8213L3.55548 3.56197C3.51395 3.27404 3.24666 3.07373 2.95866 3.11544C2.67334 3.15645 2.47055 3.42421 2.51208 3.71214L2.54316 3.92793L1.87413 3.42721C1.64037 3.25287 1.30986 3.30099 1.13609 3.53331C0.961714 3.76664 1.00912 4.09686 1.24238 4.27142L1.91182 4.77241L1.69547 4.80358C1.41037 4.84509 1.20763 5.11297 1.24895 5.4004C1.29074 5.68896 1.55776 5.88863 1.84582 5.84705L3.1051 5.66531L4.0217 6.35133L2.32987 6.59504C2.04376 6.63594 1.84169 6.90399 1.88322 7.19192C1.92487 7.47979 2.19216 7.6801 2.48004 7.63844L5.21521 7.24443L5.80808 7.68802L4.54094 7.949C4.31889 7.99545 4.15097 8.17762 4.12375 8.40271C4.09708 8.62801 4.21711 8.84541 4.42238 8.94176L5.59281 9.49377L4.91268 9.7852L2.34678 8.75863C2.0764 8.65045 1.76977 8.78184 1.6616 9.05222C1.55342 9.3226 1.68481 9.62923 1.95519 9.7374L3.54232 10.3724L2.48994 10.8233L1.30838 10.3506C1.038 10.2424 0.731372 10.3738 0.623198 10.6442C0.515024 10.9146 0.64641 11.2212 0.916789 11.3294L1.11957 11.4105L0.31969 11.7532C0.0520527 11.8679 -0.0719151 12.1778 0.0427638 12.4454C0.157443 12.713 0.467297 12.837 0.734935 12.7223L1.53482 12.3796L1.45361 12.5826C1.34551 12.8528 1.47695 13.1595 1.74721 13.2677C2.01753 13.3758 2.32429 13.2443 2.43239 12.9741L2.90511 11.7926L3.95749 11.3417L3.3225 12.9288C3.21433 13.1992 3.34572 13.5058 3.6161 13.614C3.88647 13.7221 4.1931 13.5908 4.30128 13.3204L5.32785 10.7545L6.00799 10.4631L5.60048 11.6912C5.52847 11.9062 5.60313 12.1432 5.78466 12.2793C5.96653 12.4148 6.21705 12.4205 6.40092 12.2902L7.4639 11.5527L7.37614 12.288L5.20419 13.9964C4.97552 14.1763 4.93613 14.5078 5.11601 14.7366C5.29615 14.9663 5.62953 15.0072 5.85613 14.825L7.19967 13.7681L7.06396 14.9048L6.06383 15.6914C5.83516 15.8712 5.79555 16.2023 5.97552 16.4316C6.15535 16.6603 6.48962 16.7008 6.71576 16.5199L6.88743 16.3848L6.78841 17.2151C6.75391 17.5044 6.9603 17.7665 7.24947 17.801C7.53595 17.8353 7.8003 17.6313 7.83554 17.3399L7.93447 16.5102L8.06909 16.6814C8.25061 16.9127 8.58378 16.9478 8.80933 16.7697C9.03806 16.59 9.0774 16.2584 8.8977 16.0296L8.11103 15.0296L8.24669 13.8927L9.30371 15.2361C9.48476 15.467 9.8175 15.5032 10.0438 15.3245C10.2727 15.1448 10.312 14.8131 10.1322 14.5844L8.4233 12.4122L8.51094 11.677L9.37099 12.6444C9.52151 12.8141 9.76365 12.8682 9.97236 12.7788C10.1811 12.6894 10.3089 12.4767 10.2899 12.2507L10.1823 10.961L10.7754 11.4048L11.169 14.1401C11.2101 14.4283 11.4779 14.6283 11.7657 14.5867C12.0511 14.5461 12.2541 14.2806 12.2124 13.9899L11.9691 12.2978L12.8858 12.9838L13.067 14.2432C13.1082 14.5314 13.3758 14.7314 13.6638 14.6898C13.9491 14.6491 14.1521 14.3838 14.1104 14.093L14.0793 13.8769L14.7489 14.3778C14.9823 14.5525 15.313 14.5041 15.4868 14.2716C15.6613 14.0384 15.6138 13.708 15.3806 13.5336L14.7112 13.0326L14.927 13.0015C15.2188 12.961 15.4152 12.6927 15.3735 12.4047C15.332 12.1168 15.0647 11.9165 14.7767 11.9582L13.5175 12.1396L12.6009 11.4537L14.2927 11.21C14.5825 11.1716 14.7815 10.9014 14.7392 10.6132C14.6977 10.3253 14.4304 10.125 14.1424 10.1667L11.4072 10.5607L10.8145 10.1171L12.0816 9.85607C12.3017 9.81166 12.4715 9.6275 12.4988 9.40236C12.5255 9.17706 12.4054 8.95966 12.2001 8.86337L11.0296 8.31135L11.7103 8.01971L14.2762 9.04628C14.5465 9.15445 14.8532 9.02307 14.9613 8.75269C15.0695 8.48231 14.9381 8.17568 14.6678 8.06751L13.0806 7.43252L14.133 6.9816L15.3146 7.45432C15.5849 7.56249 15.8916 7.43111 15.9997 7.16073C16.1079 6.89035 15.9765 6.58372 15.7062 6.47554L15.5034 6.39441L16.3051 6.05086C16.5728 5.93619 16.6967 5.6262 16.5821 5.35869C16.4673 5.09093 16.1575 4.96696 15.8898 5.08164Z" fill="#CCEDFF"/>
</svg>
